<svg xmlns="http://www.w3.org/2000/svg" width="428.977" height="40.786" viewBox="0 0 428.977 40.786">
  <g id="Group_834" data-name="Group 834" transform="translate(-1136.024 -261.897)">
    <path id="Path_352" data-name="Path 352" d="M12.425-16.5v6.525h-6.3V-16.5h-4.3V0h4.3V-6.65h6.3V0h4.3V-16.5Zm14,13.175V-6.7h6.8V-9.825h-6.8v-3.35h8.55V-16.5H22.125V0H35.3V-3.325ZM50.225,0H54.65L48.875-16.5h-5.15L37.925,0H42.25L43.4-3.725h5.7Zm-5.9-6.65,1.225-3.975.675-2.575h.05L47-10.6l1.2,3.95Zm18.3,3.325V-16.5h-4.3V0H70.9V-3.325ZM85.6-16.5H70.525v3.325h5.4V0h4.3V-13.175H85.6Zm14.8,0v6.525H94.1V-16.5H89.8V0h4.3V-6.65h6.3V0h4.3V-16.5ZM124.725-4.725l-3.9-1.1a3,3,0,0,1-3.275,2.7c-2.425,0-3.75-1.775-3.75-5.125,0-3.375,1.425-5.125,3.825-5.125,1.7,0,2.65.65,3.125,2.7l3.775-1.525c-.825-3.125-3.6-4.55-7.05-4.55-4.975,0-8.075,3.175-8.075,8.5s3.075,8.5,8.1,8.5C121,.25,123.75-1.275,124.725-4.725ZM139.45,0h4.425L138.1-16.5h-5.15L127.15,0h4.325l1.15-3.725h5.7Zm-5.9-6.65,1.225-3.975.675-2.575h.05l.725,2.6,1.2,3.95ZM157.875,0h4.75L158.45-6.475a4.661,4.661,0,0,0,3.2-4.775c0-3.4-2.25-5.25-6.225-5.25H147.55V0h4.225V-6.025h2.575Zm-6.1-13.25H154.7c1.825,0,2.625.625,2.625,2.075,0,1.475-.8,2.1-2.625,2.1h-2.925Zm19.05,9.925V-6.7h6.8V-9.825h-6.8v-3.35h8.55V-16.5h-12.85V0H179.7V-3.325Zm29.7-13.175H192.95V0h4.3V-5.725h3.275c4.1,0,6.375-1.925,6.375-5.3C206.9-14.575,204.625-16.5,200.525-16.5Zm-.675,7.625h-2.6V-13.25h2.6c1.9,0,2.725.725,2.725,2.175C202.575-9.6,201.75-8.875,199.85-8.875ZM221.725,0h4.75L222.3-6.475a4.661,4.661,0,0,0,3.2-4.775c0-3.4-2.25-5.25-6.225-5.25H211.4V0h4.225V-6.025H218.2Zm-6.1-13.25h2.925c1.825,0,2.625.625,2.625,2.075,0,1.475-.8,2.1-2.625,2.1h-2.925Zm21.975-3.5c-5.025,0-8.1,3.175-8.1,8.5s3.075,8.5,8.1,8.5,8.075-3.175,8.075-8.5S242.625-16.75,237.6-16.75Zm0,3.375c2.375,0,3.675,1.75,3.675,5.125s-1.3,5.125-3.675,5.125c-2.4,0-3.7-1.75-3.7-5.125S235.2-13.375,237.6-13.375Zm25.6.2V-16.5H250.375V0h4.3V-6.35h6.8V-9.675h-6.8v-3.5Zm8.525,9.85V-6.7h6.8V-9.825h-6.8v-3.35h8.55V-16.5h-12.85V0H280.6V-3.325ZM291.4-16.75c-4.525,0-7.1,2.275-7.1,5.375,0,3.225,2.525,4.375,6.425,5.15,2.25.425,3.2.85,3.2,1.625,0,.95-.9,1.5-2.75,1.5a5.653,5.653,0,0,1-5.15-2.45l-2.2,3C285.45-.75,287.5.25,291.4.25c3.975,0,6.975-1.85,6.975-5.075,0-2.9-1.775-4.375-6.35-5.2-2.35-.425-3.25-.875-3.25-1.725,0-.95.925-1.65,2.7-1.65a5.04,5.04,0,0,1,4.6,2.425l2.425-2.8A8.6,8.6,0,0,0,291.4-16.75Zm17.85,0c-4.525,0-7.1,2.275-7.1,5.375,0,3.225,2.525,4.375,6.425,5.15,2.25.425,3.2.85,3.2,1.625,0,.95-.9,1.5-2.75,1.5a5.653,5.653,0,0,1-5.15-2.45l-2.2,3C303.3-.75,305.35.25,309.25.25c3.975,0,6.975-1.85,6.975-5.075,0-2.9-1.775-4.375-6.35-5.2-2.35-.425-3.25-.875-3.25-1.725,0-.95.925-1.65,2.7-1.65a5.04,5.04,0,0,1,4.6,2.425l2.425-2.8A8.6,8.6,0,0,0,309.25-16.75Zm15.7.25h-4.3V0h4.3Zm12.8-.25c-5.025,0-8.1,3.175-8.1,8.5s3.075,8.5,8.1,8.5,8.075-3.175,8.075-8.5S342.775-16.75,337.75-16.75Zm0,3.375c2.375,0,3.675,1.75,3.675,5.125s-1.3,5.125-3.675,5.125c-2.4,0-3.7-1.75-3.7-5.125S335.35-13.375,337.75-13.375ZM365.4-16.5h-3.8v8.325l.1,3.1h-.025l-1.25-2.5L355.3-16.5h-4.775V0h3.8V-8.325l-.1-3.1h.025l1.25,2.5L360.625,0H365.4ZM381.375,0H385.8l-5.775-16.5h-5.15L369.075,0H373.4l1.15-3.725h5.7Zm-5.9-6.65,1.225-3.975.675-2.575h.05l.725,2.6,1.2,3.95Zm18.3,3.325V-16.5h-4.3V0H402.05V-3.325Zm18.95-13.425c-4.525,0-7.1,2.275-7.1,5.375,0,3.225,2.525,4.375,6.425,5.15,2.25.425,3.2.85,3.2,1.625,0,.95-.9,1.5-2.75,1.5a5.653,5.653,0,0,1-5.15-2.45l-2.2,3c1.625,1.8,3.675,2.8,7.575,2.8C416.7.25,419.7-1.6,419.7-4.825c0-2.9-1.775-4.375-6.35-5.2-2.35-.425-3.25-.875-3.25-1.725,0-.95.925-1.65,2.7-1.65a5.04,5.04,0,0,1,4.6,2.425l2.425-2.8A8.6,8.6,0,0,0,412.725-16.75Z" transform="translate(1135.001 284.897)"/>
    <text id="_." data-name="." transform="translate(1557.001 284.897)" fill="#ba3027" font-size="25" font-family="WorkSans-Bold, Work Sans" font-weight="700" letter-spacing="0.07em"><tspan x="0" y="0">.</tspan></text>
    <line id="Line_87" data-name="Line 87" x2="23.381" transform="translate(1136.024 299.683)" fill="none" stroke="#ba3027" stroke-width="6"/>
  </g>
</svg>
