<svg xmlns="http://www.w3.org/2000/svg" width="146.977" height="40.786" viewBox="0 0 146.977 40.786">
  <g id="Group_835" data-name="Group 835" transform="translate(-1136.024 -261.897)">
    <path id="Path_353" data-name="Path 353" d="M9.4-16.5H1.825V0h4.3V-5.725H9.4c4.1,0,6.375-1.925,6.375-5.3C15.775-14.575,13.5-16.5,9.4-16.5ZM8.725-8.875h-2.6V-13.25h2.6c1.9,0,2.725.725,2.725,2.175C11.45-9.6,10.625-8.875,8.725-8.875ZM29.925,0H34.35L28.575-16.5h-5.15L17.625,0H21.95L23.1-3.725h5.7Zm-5.9-6.65,1.225-3.975.675-2.575h.05l.725,2.6,1.2,3.95Zm26.4-9.85H35.35v3.325h5.4V0h4.3V-13.175h5.375Zm9.25,0h-4.3V0h4.3ZM70.125-3.325V-6.7h6.8V-9.825h-6.8v-3.35h8.55V-16.5H65.825V0H79V-3.325ZM98.975-16.5h-3.8v8.325l.1,3.1H95.25L94-7.575,88.875-16.5H84.1V0h3.8V-8.325l-.1-3.1h.025l1.25,2.5L94.2,0h4.775ZM119-16.5H103.925v3.325h5.4V0h4.3V-13.175H119Zm11.1-.25c-4.525,0-7.1,2.275-7.1,5.375,0,3.225,2.525,4.375,6.425,5.15,2.25.425,3.2.85,3.2,1.625,0,.95-.9,1.5-2.75,1.5a5.653,5.653,0,0,1-5.15-2.45l-2.2,3C124.15-.75,126.2.25,130.1.25c3.975,0,6.975-1.85,6.975-5.075,0-2.9-1.775-4.375-6.35-5.2-2.35-.425-3.25-.875-3.25-1.725,0-.95.925-1.65,2.7-1.65a5.04,5.04,0,0,1,4.6,2.425l2.425-2.8A8.6,8.6,0,0,0,130.1-16.75Z" transform="translate(1135.001 284.897)"/>
    <text id="_." data-name="." transform="translate(1275.001 284.897)" fill="#ba3027" font-size="25" font-family="WorkSans-Bold, Work Sans" font-weight="700" letter-spacing="0.1em"><tspan x="0" y="0">.</tspan></text>
    <line id="Line_87" data-name="Line 87" x2="23.381" transform="translate(1136.024 299.683)" fill="none" stroke="#ba3027" stroke-width="6"/>
  </g>
</svg>
